<svg xmlns="http://www.w3.org/2000/svg" version="1.1" xmlns:xlink="http://www.w3.org/1999/xlink" xmlns:svgjs="http://svgjs.dev/svgjs" width="100%" height="100%" viewBox="0 0 1000 600"><rect width="1000" height="600" x="0" y="0" fill="#f96167"/><g><rect width="333.3333333333333" height="333.3333333333333" y="232.05966126133873" fill="#fce77d" transform="matrix(0.5956992723141685,0,0,0.5956992723141685,0,62.47902961450663)" x="209.83743286132812"/><path d="M335.4624251751673 473.7263198884745L335.4624251751673 323.7263244297807L371.0279002888854 323.7263244297807Q394.80766147370616 323.7263244297807 404.03385167057024 333.69656222316604Q413.2600418674343 343.6668000165514 413.2600418674343 365.9287041044687L413.2600418674343 365.9287041044687Q413.2600418674343 379.0239418032436 409.7183753079929 386.8215606147868Q406.1767087485516 394.64894133019084 398.2600423215649 398.5179888321016L398.2600423215649 398.5179888321016Q408.3195658265329 401.94060777609957 412.9326609249649 409.8572742030862Q417.5457560233971 417.8037025339337 417.5457560233971 431.94060686783837L417.5457560233971 431.94060686783837Q417.5457560233971 446.52393975965583 413.2600418674343 455.72036805265907Q408.9743277114717 464.9465582495232 399.0933756296688 469.32155811706843Q389.2421854517268 473.7263198884745 372.0993288278761 473.7263198884745L372.0993288278761 473.7263198884745L335.4624251751673 473.7263198884745ZM394.59932814668014 370.2144182604314L394.59932814668014 370.2144182604314L394.59932814668014 361.88108517939287Q394.59932814668014 355.0060853875361 393.6469472231329 349.85727601960866Q392.6648043957248 344.73822855554215 387.7540902586842 341.82156197717865Q382.8136142177828 338.934657302676 370.81956696185944 338.934657302676L370.81956696185944 338.934657302676L353.8850436650347 338.934657302676L353.8850436650347 392.9525128101223L368.6767098838781 392.9525128101223Q381.7421856787921 392.9525128101223 387.0993283737455 390.0358462317588Q392.4564710686988 387.14894155725614 393.5278996076895 382.0001321893288Q394.59932814668014 376.8810847252622 394.59932814668014 370.2144182604314ZM398.8850423026429 436.0179876967751L398.8850423026429 436.0179876967751L398.8850423026429 427.6548927118757Q398.8850423026429 422.71441667097423 398.3493280331475 418.547750130455Q397.81361376365214 414.3810835899357 395.25409003161894 411.3751312999897Q392.6648043957248 408.36917901004364 386.7719474312761 406.7620362015576Q380.8790904668274 405.1548933930716 370.16480507692074 405.1548933930716L370.16480507692074 405.1548933930716L353.8850436650347 405.1548933930716L353.8850436650347 458.5179870155792L372.307662154902 458.5179870155792Q385.61123318070287 458.5179870155792 391.1767092026822 455.6310823410765Q396.7421852246615 452.71441576271303 397.81361376365214 447.68465401022905Q398.8850423026429 442.6548922577451 398.8850423026429 436.0179876967751Z " fill="#f96167" transform="matrix(0.5956992723141685,0,0,0.5956992723141685,0,62.47902961450663)"/><path d="M626.5040893655982 340.2405001645379L626.5040893655982 328.901066824758L688.0610132101174 328.901066824758L688.0610132101174 340.2405001645379L664.2572027468493 340.2405001645379L664.2572027468493 442.2954002225565L650.3078998288662 442.2954002225565L650.3078998288662 340.2405001645379L626.5040893655982 340.2405001645379ZM724.3516996725477 356.2821985202185L724.3516996725477 356.2821985202185Q736.6585846663168 356.2821985202185 742.4857934659258 359.589533244321Q748.3130022655349 362.91936684409757 750.0229168167715 368.58908351398753Q751.7328313680082 374.25880018387744 751.7328313680082 381.54843590230735L751.7328313680082 381.54843590230735Q751.7328313680082 390.77297492871554 748.8979730330632 395.970215209448Q746.0631146981183 401.14495661450627 740.4608946552509 403.41734305759707Q734.8811734880576 405.68972950068786 726.9390703750769 406.252201392542Q718.9969672620961 406.8146732843962 708.8049765816987 406.9721654141153L708.8049765816987 406.9721654141153L708.8049765816987 419.1215582781652Q708.8049765816987 428.2111040505284 712.764778700352 430.86597138008Q716.7245808190053 433.5433375853058 723.2042570131653 433.5433375853058L723.2042570131653 433.5433375853058Q729.0539646884484 433.5433375853058 735.353649877215 432.48589042862Q741.6758339416558 431.4509421476083 747.3455506115457 429.02106357479835L747.3455506115457 429.02106357479835L749.9329213140749 437.1206588174983Q743.7907282550275 440.6754811740165 737.4685441905867 442.4528923522757Q731.146360126146 444.23030353053485 723.046764883446 444.23030353053485L723.046764883446 444.23030353053485Q712.8547742030487 444.23030353053485 707.095062030462 441.1704564388482Q701.3353498578755 438.0881104714874 698.9054712850656 432.3283982989008Q696.4755927122555 426.5911850019884 695.9131208204014 418.4915897592885Q695.3506489285472 410.3919945165886 695.3506489285472 400.17750496051707L695.3506489285472 400.17750496051707Q695.3506489285472 389.96301540444557 695.9131208204014 381.86342016174564Q696.4755927122555 373.76382491904576 699.0854622904588 368.09410824915585Q701.672832992988 362.4243915792659 707.6575339223162 359.3645444875793Q713.6647337273187 356.2821985202185 724.3516996725477 356.2821985202185ZM708.8049765816987 381.05346063747567L708.8049765816987 381.05346063747567L708.8049765816987 397.7476263877071Q716.5670886892862 397.7476263877071 723.2942525158619 397.18515449585294Q730.0214163424376 396.6226826039988 734.2287060935067 394.0128130257955Q738.4359958445758 391.4254423232664 738.4359958445758 385.10325825882563L738.4359958445758 385.10325825882563L738.4359958445758 381.3909437725882Q738.4359958445758 376.8461708864066 737.7160318230025 373.6063327893266Q736.973568925755 370.36649469224665 733.9812184610909 368.67907901668417Q730.9888679964267 366.96916446544753 724.1942075428285 366.96916446544753L724.1942075428285 366.96916446544753Q714.6321853813079 366.96916446544753 711.7073315436662 370.9289665841008Q708.8049765816987 374.91126757842824 708.8049765816987 381.05346063747567ZM801.7703308673542 356.2821985202185L801.7703308673542 356.2821985202185Q805.0101689644341 356.2821985202185 810.3649013748857 357.0921580444885Q815.7196337853374 357.90211756875846 820.7368830606764 360.17450401184925L820.7368830606764 360.17450401184925L818.1495123581473 368.74657564370665Q815.2246585205056 367.9366161194367 811.5798406612907 367.4641397302792Q807.9350228020758 366.96916446544753 802.1078140024666 366.96916446544753L802.1078140024666 366.96916446544753Q794.1657108894859 366.96916446544753 790.8358772897093 368.9040677734258Q787.5285425656068 370.8614699570783 786.8760751710561 374.16880468118075Q786.2236077765052 377.4986382809574 786.2236077765052 381.7059280320265L786.2236077765052 381.7059280320265L786.2236077765052 418.6490818890077Q786.2236077765052 427.4011445262584 790.6108885329677 430.64098262333835Q794.9756704137559 433.8808207204183 801.7703308673542 433.8808207204183L801.7703308673542 433.8808207204183Q805.662636358985 433.8808207204183 810.1174137424699 433.1383578231708Q814.5721911259549 432.41839380159746 819.1169640121365 431.270951142215L819.1169640121365 431.270951142215L821.0518673201148 440.0230137794657Q816.8445775690457 441.9804159631182 811.894824920729 443.10535974682654Q806.9675711480866 444.23030353053485 800.4878949539267 444.23030353053485L800.4878949539267 444.23030353053485Q790.2734053978552 444.23030353053485 784.5361921009427 441.1704564388482Q778.7764799283561 438.0881104714874 776.3466013555462 432.3283982989008Q773.9167227827362 426.5911850019884 773.354250890882 418.4915897592885Q772.7917789990279 410.3919945165886 772.7917789990279 400.17750496051707L772.7917789990279 400.17750496051707Q772.7917789990279 389.96301540444557 773.354250890882 381.86342016174564Q773.9167227827362 373.76382491904576 776.5040934852653 368.09410824915585Q779.0914641877945 362.4243915792659 785.0986639927969 359.3645444875793Q791.0833649221252 356.2821985202185 801.7703308673542 356.2821985202185ZM897.0305704717746 383.9783144751173L897.0305704717746 442.2954002225565L883.7562338240164 442.2954002225565L883.7562338240164 382.20090329685814Q883.7562338240164 377.65613041067655 883.013770926769 374.41629231359656Q882.2938069051957 371.1764542165166 879.3014564405315 369.48903854095414Q876.2866071001931 367.7791239897175 869.4919466465949 367.7791239897175L869.4919466465949 367.7791239897175Q859.9299244850743 367.7791239897175 857.0275695231068 371.7389261083708Q854.1027156854651 375.72122710269826 854.1027156854651 381.86342016174564L854.1027156854651 381.86342016174564L854.1027156854651 442.2954002225565L840.828379037707 442.2954002225565L840.828379037707 325.66122872767806L853.2927561611951 325.66122872767806L853.2927561611951 365.34924541690754Q858.4674975662534 359.8370208767368 864.0697176091209 358.5545849633093Q869.6494387763141 357.24965017420766 875.1616633164848 357.24965017420766L875.1616633164848 357.24965017420766Q884.8811776077248 357.24965017420766 889.4934471209289 361.05196016314176Q894.1057166341329 364.85427015207586 895.5681435529538 370.9289665841008Q897.0305704717746 377.0036630161257 897.0305704717746 383.9783144751173L897.0305704717746 383.9783144751173ZM980.7713857310218 383.0108628211281L980.7713857310218 442.2954002225565L967.4970490832636 442.2954002225565L967.4970490832636 381.233451642869Q967.4970490832636 376.6886787566874 966.7770850616903 373.4488406596074Q966.0346221644428 370.2090025625275 963.0422716997787 368.49908801129084Q960.0499212351147 366.81167233572836 953.2327619058422 366.81167233572836L953.2327619058422 366.81167233572836Q943.6932386199956 366.81167233572836 940.7683847823539 370.77147445438163Q937.8435309447123 374.75377544870906 937.8435309447123 380.8959685077565L937.8435309447123 380.8959685077565L937.8435309447123 442.2954002225565L924.5691942969543 442.2954002225565L924.5691942969543 358.05960969847763L931.8588300153841 358.05960969847763L933.9737243287557 366.0017128114584Q937.3710545555548 361.14195566583845 941.7358364363431 359.11705685516347Q946.1231171928056 357.0921580444885 950.645391203313 356.6871782823535Q955.1901640894946 356.2821985202185 958.9024785757322 356.2821985202185L958.9024785757322 356.2821985202185Q968.621992866972 356.2821985202185 973.2567612558503 360.0845085091526Q977.8690307690543 363.8868184980867 979.3314576878752 369.96151493011166Q980.7713857310218 376.03621136213656 980.7713857310218 383.0108628211281L980.7713857310218 383.0108628211281ZM1035.2186648625043 444.23030353053485L1035.2186648625043 444.23030353053485Q1024.194215782163 444.23030353053485 1018.2095148528346 441.1704564388482Q1012.2023150478321 438.0881104714874 1009.6149443453031 432.3283982989008Q1007.0275736427739 426.5911850019884 1006.4651017509198 418.4915897592885Q1005.8801309833915 410.3919945165886 1005.8801309833915 400.17750496051707L1005.8801309833915 400.17750496051707Q1005.8801309833915 389.96301540444557 1006.4651017509198 381.86342016174564Q1007.0275736427739 373.76382491904576 1009.6149443453031 368.09410824915585Q1012.2023150478321 362.4243915792659 1018.2095148528346 359.3645444875793Q1024.194215782163 356.2821985202185 1035.2186648625043 356.2821985202185L1035.2186648625043 356.2821985202185Q1046.2206150671718 356.2821985202185 1052.2953114991967 359.3645444875793Q1058.3700079312216 362.4243915792659 1060.9573786337507 368.09410824915585Q1063.567248211954 373.76382491904576 1064.1297201038083 381.86342016174564Q1064.6921919956624 389.96301540444557 1064.6921919956624 400.17750496051707L1064.6921919956624 400.17750496051707Q1064.6921919956624 410.3919945165886 1064.1297201038083 418.4915897592885Q1063.567248211954 426.5911850019884 1060.9573786337507 432.3283982989008Q1058.3700079312216 438.0881104714874 1052.2953114991967 441.1704564388482Q1046.2206150671718 444.23030353053485 1035.2186648625043 444.23030353053485ZM1050.9228800830724 418.80657401872685L1050.9228800830724 418.80657401872685L1050.9228800830724 381.7059280320265Q1050.9228800830724 377.4986382809574 1050.2704126885217 374.10130805415827Q1049.617945293971 370.70397782735915 1046.378107196891 368.74657564370665Q1043.138269099811 366.81167233572836 1035.2186648625043 366.81167233572836L1035.2186648625043 366.81167233572836Q1027.2765617495238 366.81167233572836 1023.9467281497471 368.74657564370665Q1020.6393934256446 370.70397782735915 1019.9869260310938 374.10130805415827Q1019.3344586365429 377.4986382809574 1019.3344586365429 381.7059280320265L1019.3344586365429 381.7059280320265L1019.3344586365429 418.80657401872685Q1019.3344586365429 423.01386376979593 1019.9869260310938 426.41119399659505Q1020.6393934256446 429.8310230990684 1023.9467281497471 431.76592640704666Q1027.2765617495238 433.70082971502495 1035.2186648625043 433.70082971502495L1035.2186648625043 433.70082971502495Q1043.138269099811 433.70082971502495 1046.378107196891 431.76592640704666Q1049.617945293971 429.8310230990684 1050.2704126885217 426.41119399659505Q1050.9228800830724 423.01386376979593 1050.9228800830724 418.80657401872685ZM1104.69519294433 442.2954002225565L1091.420856296572 442.2954002225565L1091.420856296572 325.66122872767806L1104.69519294433 325.66122872767806L1104.69519294433 442.2954002225565ZM1160.7623911243527 444.23030353053485L1160.7623911243527 444.23030353053485Q1149.737942044011 444.23030353053485 1143.753241114683 441.1704564388482Q1137.7460413096805 438.0881104714874 1135.1586706071514 432.3283982989008Q1132.5712999046223 426.5911850019884 1132.0088280127682 418.4915897592885Q1131.4238572452398 410.3919945165886 1131.4238572452398 400.17750496051707L1131.4238572452398 400.17750496051707Q1131.4238572452398 389.96301540444557 1132.0088280127682 381.86342016174564Q1132.5712999046223 373.76382491904576 1135.1586706071514 368.09410824915585Q1137.7460413096805 362.4243915792659 1143.753241114683 359.3645444875793Q1149.737942044011 356.2821985202185 1160.7623911243527 356.2821985202185L1160.7623911243527 356.2821985202185Q1171.76434132902 356.2821985202185 1177.839037761045 359.3645444875793Q1183.91373419307 362.4243915792659 1186.501104895599 368.09410824915585Q1189.1109744738023 373.76382491904576 1189.6734463656567 381.86342016174564Q1190.2359182575105 389.96301540444557 1190.2359182575105 400.17750496051707L1190.2359182575105 400.17750496051707Q1190.2359182575105 410.3919945165886 1189.6734463656567 418.4915897592885Q1189.1109744738023 426.5911850019884 1186.501104895599 432.3283982989008Q1183.91373419307 438.0881104714874 1177.839037761045 441.1704564388482Q1171.76434132902 444.23030353053485 1160.7623911243527 444.23030353053485ZM1176.4666063449208 418.80657401872685L1176.4666063449208 418.80657401872685L1176.4666063449208 381.7059280320265Q1176.4666063449208 377.4986382809574 1175.81413895037 374.10130805415827Q1175.1616715558193 370.70397782735915 1171.9218334587392 368.74657564370665Q1168.6819953616591 366.81167233572836 1160.7623911243527 366.81167233572836L1160.7623911243527 366.81167233572836Q1152.8202880113722 366.81167233572836 1149.4904544115952 368.74657564370665Q1146.1831196874928 370.70397782735915 1145.5306522929422 374.10130805415827Q1144.8781848983913 377.4986382809574 1144.8781848983913 381.7059280320265L1144.8781848983913 381.7059280320265L1144.8781848983913 418.80657401872685Q1144.8781848983913 423.01386376979593 1145.5306522929422 426.41119399659505Q1146.1831196874928 429.8310230990684 1149.4904544115952 431.76592640704666Q1152.8202880113722 433.70082971502495 1160.7623911243527 433.70082971502495L1160.7623911243527 433.70082971502495Q1168.6819953616591 433.70082971502495 1171.9218334587392 431.76592640704666Q1175.1616715558193 429.8310230990684 1175.81413895037 426.41119399659505Q1176.4666063449208 423.01386376979593 1176.4666063449208 418.80657401872685ZM1258.5875025556284 448.61758428699727L1258.5875025556284 448.61758428699727L1258.5875025556284 434.3532971095758Q1253.5702532802889 438.8980699957574 1247.5855523509608 439.7755261470499Q1241.5783525459583 440.6754811740165 1236.7185954003385 440.6754811740165L1236.7185954003385 440.6754811740165Q1227.1790721144919 440.6754811740165 1222.3868115958944 436.1307082878349Q1217.6170499529712 431.6084342773275 1216.0646275314537 422.60888400766095Q1214.5347039856103 413.63183261366856 1214.5347039856103 400.33499709023624L1214.5347039856103 400.33499709023624Q1214.5347039856103 389.96301540444557 1215.0971758774645 381.79592353472316Q1215.6596477693188 373.6063327893266 1218.1795218448253 367.9366161194367Q1220.6993959203319 362.26689944954677 1226.4366092172445 359.27454898488264Q1232.1963213898312 356.2821985202185 1242.3883120702285 356.2821985202185L1242.3883120702285 356.2821985202185Q1246.9330849564099 356.2821985202185 1254.8751880693908 357.24965017420766Q1262.8172911823717 358.2171018281968 1271.8843380790604 360.9844635361193L1271.8843380790604 360.9844635361193L1271.8843380790604 448.1226090221656Q1271.8843380790604 455.749727875708 1270.1744235278238 461.5769366753171Q1268.4870078522613 467.4041454749262 1262.9747833120905 470.55398806930947Q1257.4625587719197 473.72632953936693 1245.8081411727017 473.72632953936693L1245.8081411727017 473.72632953936693Q1237.708545930002 473.72632953936693 1230.8913866007292 471.8589228584111Q1224.096726147131 469.9915161774553 1219.079476871792 467.56163760464534L1219.079476871792 467.56163760464534L1221.666847574321 459.46204236194546Q1226.1891215848286 460.9244692807663 1232.2638180168533 461.98191643745207Q1238.3385144488784 463.0393635941379 1244.1882221241617 463.0393635941379L1244.1882221241617 463.0393635941379Q1250.6678983183215 463.0393635941379 1254.627700436975 460.36199738891213Q1258.5875025556284 457.68463118368635 1258.5875025556284 448.61758428699727ZM1257.7775430313582 416.2192033161977L1257.7775430313582 416.2192033161977L1257.7775430313582 368.58908351398753Q1254.2227206748398 367.7791239897175 1250.4204106859056 367.2841487248858Q1246.6181006969714 366.81167233572836 1242.725795205341 366.81167233572836L1242.725795205341 366.81167233572836Q1236.4036111409 366.81167233572836 1233.2537685465168 368.1841037518525Q1230.0814270764592 369.5565351679767 1229.11397542247 372.88636876775325Q1228.146523768481 376.19370349185573 1228.146523768481 382.04341116713897L1228.146523768481 382.04341116713897L1228.146523768481 415.8817201810852Q1228.146523768481 420.4264930672668 1228.8664877900542 423.6663311643468Q1229.6089506873018 426.9061692614267 1232.601301151966 428.61608381266336Q1235.5936516166303 430.30349948822584 1242.3883120702285 430.30349948822584L1242.3883120702285 430.30349948822584Q1251.950334231749 430.30349948822584 1254.8751880693908 426.25370186687593Q1257.7775430313582 422.20390424552596 1257.7775430313582 416.2192033161977ZM1301.0428809527803 358.05960969847763L1314.3172176005382 358.05960969847763L1314.3172176005382 442.2954002225565L1301.0428809527803 442.2954002225565L1301.0428809527803 358.05960969847763ZM1307.6800492766592 323.7263254196997L1307.6800492766592 323.7263254196997Q1310.6049031143007 323.7263254196997 1312.6298019249757 324.13130518183476Q1314.6547007356507 324.53628494396975 1315.779644519359 326.3136961222289Q1316.9045883030672 328.09110730048803 1316.9045883030672 332.6358801866696L1316.9045883030672 332.6358801866696Q1316.9045883030672 337.15815419717705 1315.779644519359 339.02556087813286Q1314.6547007356507 340.8929675590887 1312.6298019249757 341.29794732122366Q1310.6049031143007 341.7029270833587 1307.6800492766592 341.7029270833587L1307.6800492766592 341.7029270833587Q1304.9351864444106 341.7029270833587 1302.820292131039 341.29794732122366Q1300.7053978176677 340.8929675590887 1299.580454033959 339.02556087813286Q1298.4555102502509 337.15815419717705 1298.4555102502509 332.6358801866696L1298.4555102502509 332.6358801866696Q1298.4555102502509 328.09110730048803 1299.580454033959 326.3136961222289Q1300.7053978176677 324.53628494396975 1302.820292131039 324.13130518183476Q1304.9351864444106 323.7263254196997 1307.6800492766592 323.7263254196997ZM1370.0469326454486 356.2821985202185L1370.0469326454486 356.2821985202185Q1382.3538176392176 356.2821985202185 1388.1810264388264 359.589533244321Q1394.0307341141097 362.91936684409757 1395.7181497896722 368.58908351398753Q1397.4280643409088 374.25880018387744 1397.4280643409088 381.54843590230735L1397.4280643409088 381.54843590230735Q1397.4280643409088 390.77297492871554 1394.593206005964 395.970215209448Q1391.7583476710188 401.14495661450627 1386.1561276281514 403.41734305759707Q1380.576406460958 405.68972950068786 1372.6343033479775 406.252201392542Q1364.6922002349966 406.8146732843962 1354.5002095545992 406.9721654141153L1354.5002095545992 406.9721654141153L1354.5002095545992 419.1215582781652Q1354.5002095545992 428.2111040505284 1358.4600116732527 430.86597138008Q1362.4423126675802 433.5433375853058 1368.92198886174 433.5433375853058L1368.92198886174 433.5433375853058Q1374.7491976613492 433.5433375853058 1381.0713817257897 432.48589042862Q1387.3710669145562 431.4509421476083 1393.0407835844462 429.02106357479835L1393.0407835844462 429.02106357479835L1395.6506531626496 437.1206588174983Q1389.4859612279279 440.6754811740165 1383.1637771634873 442.4528923522757Q1376.8415930990468 444.23030353053485 1368.7419978563466 444.23030353053485L1368.7419978563466 444.23030353053485Q1358.5500071759493 444.23030353053485 1352.7902950033626 441.1704564388482Q1347.0530817064505 438.0881104714874 1344.6232031336403 432.3283982989008Q1342.1933245608302 426.5911850019884 1341.6083537933023 418.4915897592885Q1341.045881901448 410.3919945165886 1341.045881901448 400.17750496051707L1341.045881901448 400.17750496051707Q1341.045881901448 389.96301540444557 1341.6083537933023 381.86342016174564Q1342.1933245608302 373.76382491904576 1344.7806952633596 368.09410824915585Q1347.368065965889 362.4243915792659 1353.352766895217 359.3645444875793Q1359.359966700219 356.2821985202185 1370.0469326454486 356.2821985202185ZM1354.5002095545992 381.05346063747567L1354.5002095545992 381.05346063747567L1354.5002095545992 397.7476263877071Q1362.2623216621869 397.7476263877071 1368.9894854887625 397.18515449585294Q1375.7166493153381 396.6226826039988 1379.9239390664075 394.0128130257955Q1384.1312288174763 391.4254423232664 1384.1312288174763 385.10325825882563L1384.1312288174763 385.10325825882563L1384.1312288174763 381.3909437725882Q1384.1312288174763 376.8461708864066 1383.4112647959032 373.6063327893266Q1382.69130077433 370.36649469224665 1379.6764514339916 368.67907901668417Q1376.6841009693276 366.96916446544753 1369.8894405157293 366.96916446544753L1369.8894405157293 366.96916446544753Q1360.3274183542085 366.96916446544753 1357.402564516567 370.9289665841008Q1354.5002095545992 374.91126757842824 1354.5002095545992 381.05346063747567ZM1438.7360000786784 393.540336636638L1438.7360000786784 393.540336636638L1451.8528445967172 395.31774781489713Q1460.1099319691361 396.44269159860545 1464.4972127255987 401.4824397496187Q1468.8619946063873 406.49968902495783 1468.8619946063873 419.45904141327765L1468.8619946063873 419.45904141327765Q1468.8619946063873 426.25370186687593 1466.3421205308805 431.92341853676584Q1463.8447453310478 437.59313520665575 1458.085033158461 440.9229688064324Q1452.347819861549 444.23030353053485 1442.785797700028 444.23030353053485L1442.785797700028 444.23030353053485Q1434.6862024573284 444.23030353053485 1427.869043128056 442.7903754873882Q1421.0743826744579 441.32794856856736 1416.0571333991184 438.8980699957574L1416.0571333991184 438.8980699957574L1418.6445041016477 430.7984747530575Q1423.189276987829 431.6084342773275 1429.2639734198542 432.57588593131663Q1435.3386698518793 433.5433375853058 1441.1658786514881 433.5433375853058L1441.1658786514881 433.5433375853058Q1449.107981764469 433.5433375853058 1452.5053119912682 430.460991617945Q1455.9026422180673 427.4011445262584 1455.9026422180673 419.45904141327765L1455.9026422180673 419.45904141327765Q1455.9026422180673 415.25175166220856 1454.372718672224 411.6744304300161Q1452.8202962507066 408.11960807349783 1446.3406200565464 407.1521564195087L1446.3406200565464 407.1521564195087L1433.2237755385072 405.35224636557535Q1426.2491240795162 404.3847947115862 1422.7842972256944 401.07745998748373Q1419.2969714961982 397.7476263877071 1418.0820322097934 392.97786474478386Q1416.8670929233886 388.1856042261864 1416.8670929233886 382.67337968601566L1416.8670929233886 382.67337968601566Q1416.8670929233886 369.71402729769585 1423.5942567499642 363.00936234679426Q1430.2989217008658 356.2821985202185 1441.3233707812074 356.2821985202185L1441.3233707812074 356.2821985202185Q1448.9279907590758 356.2821985202185 1455.4076669532355 357.74462543903934Q1461.8873431473953 359.18455348218595 1466.4321160335771 361.6144320549959L1466.4321160335771 361.6144320549959L1464.002237460767 370.70397782735915Q1459.952439839417 369.71402729769585 1454.372718672224 368.67907901668417Q1448.7704986293566 367.62163185999833 1443.438265094579 367.62163185999833L1443.438265094579 367.62163185999833Q1439.5459596029482 367.62163185999833 1436.4636136355875 368.43159138426836Q1433.3812676682269 369.24155090853833 1431.6038564899677 371.9189171137641Q1429.826445311708 374.57378444331573 1429.826445311708 380.2435011132057L1429.826445311708 380.2435011132057Q1429.826445311708 386.2507009182081 1431.0413845981134 389.4005435125914Q1432.2563238845182 392.5728849826489 1438.7360000786784 393.540336636638Z " fill="#fce77d" transform="matrix(0.5956992723141685,0,0,0.5956992723141685,0,62.47902961450663)"/></g></svg>